<mxfile host="app.diagrams.net" modified="2022-11-03T01:17:50.237Z" agent="5.0 (Macintosh; Intel Mac OS X 10_15_7) AppleWebKit/605.1.15 (KHTML, like Gecko) Version/16.1 Safari/605.1.15" etag="447VdBYyEyt2q0jaPaUS" version="20.5.1" type="github">
  <diagram id="7r52QbRG1SOnmnhvZGQe" name="PÃ¡gina-1">
    <mxGraphModel dx="1657" dy="1704" grid="1" gridSize="10" guides="1" tooltips="1" connect="1" arrows="1" fold="1" page="1" pageScale="1" pageWidth="827" pageHeight="1169" math="0" shadow="0">
      <root>
        <mxCell id="0" />
        <mxCell id="1" parent="0" />
        <mxCell id="2p6uh4pjQ9wnQeHXQtB_-2" value="Region" style="points=[[0,0],[0.25,0],[0.5,0],[0.75,0],[1,0],[1,0.25],[1,0.5],[1,0.75],[1,1],[0.75,1],[0.5,1],[0.25,1],[0,1],[0,0.75],[0,0.5],[0,0.25]];outlineConnect=0;gradientColor=none;html=1;whiteSpace=wrap;fontSize=12;fontStyle=0;container=1;pointerEvents=0;collapsible=0;recursiveResize=0;shape=mxgraph.aws4.group;grIcon=mxgraph.aws4.group_region;strokeColor=#147EBA;fillColor=none;verticalAlign=top;align=left;spacingLeft=30;fontColor=#147EBA;dashed=1;" vertex="1" parent="1">
          <mxGeometry x="40" y="40" width="520" height="270" as="geometry" />
        </mxCell>
        <mxCell id="2p6uh4pjQ9wnQeHXQtB_-3" value="AWS Cloud" style="points=[[0,0],[0.25,0],[0.5,0],[0.75,0],[1,0],[1,0.25],[1,0.5],[1,0.75],[1,1],[0.75,1],[0.5,1],[0.25,1],[0,1],[0,0.75],[0,0.5],[0,0.25]];outlineConnect=0;gradientColor=none;html=1;whiteSpace=wrap;fontSize=12;fontStyle=0;container=1;pointerEvents=0;collapsible=0;recursiveResize=0;shape=mxgraph.aws4.group;grIcon=mxgraph.aws4.group_aws_cloud_alt;strokeColor=#232F3E;fillColor=none;verticalAlign=top;align=left;spacingLeft=30;fontColor=#232F3E;dashed=0;" vertex="1" parent="1">
          <mxGeometry x="-10" y="10" width="600" height="530" as="geometry" />
        </mxCell>
        <mxCell id="2p6uh4pjQ9wnQeHXQtB_-52" value="" style="endArrow=none;html=1;rounded=0;strokeWidth=2;entryX=0.763;entryY=0.859;entryDx=0;entryDy=0;entryPerimeter=0;" edge="1" parent="2p6uh4pjQ9wnQeHXQtB_-3" target="2p6uh4pjQ9wnQeHXQtB_-5">
          <mxGeometry width="50" height="50" relative="1" as="geometry">
            <mxPoint x="146" y="450" as="sourcePoint" />
            <mxPoint x="148.5" y="261" as="targetPoint" />
          </mxGeometry>
        </mxCell>
        <mxCell id="2p6uh4pjQ9wnQeHXQtB_-4" value="Private subnet" style="points=[[0,0],[0.25,0],[0.5,0],[0.75,0],[1,0],[1,0.25],[1,0.5],[1,0.75],[1,1],[0.75,1],[0.5,1],[0.25,1],[0,1],[0,0.75],[0,0.5],[0,0.25]];outlineConnect=0;gradientColor=none;html=1;whiteSpace=wrap;fontSize=12;fontStyle=0;container=1;pointerEvents=0;collapsible=0;recursiveResize=0;shape=mxgraph.aws4.group;grIcon=mxgraph.aws4.group_security_group;grStroke=0;strokeColor=#147EBA;fillColor=#E6F2F8;verticalAlign=top;align=left;spacingLeft=30;fontColor=#147EBA;dashed=0;" vertex="1" parent="2p6uh4pjQ9wnQeHXQtB_-3">
          <mxGeometry x="70" y="70" width="200" height="203" as="geometry" />
        </mxCell>
        <mxCell id="2p6uh4pjQ9wnQeHXQtB_-84" value="RDS" style="text;html=1;strokeColor=none;fillColor=none;align=center;verticalAlign=middle;whiteSpace=wrap;rounded=0;fontSize=16;" vertex="1" parent="2p6uh4pjQ9wnQeHXQtB_-4">
          <mxGeometry x="4" y="86" width="70" height="30" as="geometry" />
        </mxCell>
        <mxCell id="2p6uh4pjQ9wnQeHXQtB_-5" value="" style="sketch=0;points=[[0,0,0],[0.25,0,0],[0.5,0,0],[0.75,0,0],[1,0,0],[0,1,0],[0.25,1,0],[0.5,1,0],[0.75,1,0],[1,1,0],[0,0.25,0],[0,0.5,0],[0,0.75,0],[1,0.25,0],[1,0.5,0],[1,0.75,0]];outlineConnect=0;fontColor=#232F3E;gradientColor=#4D72F3;gradientDirection=north;fillColor=#3334B9;strokeColor=#ffffff;dashed=0;verticalLabelPosition=bottom;verticalAlign=top;align=center;html=1;fontSize=12;fontStyle=0;aspect=fixed;shape=mxgraph.aws4.resourceIcon;resIcon=mxgraph.aws4.rds;" vertex="1" parent="2p6uh4pjQ9wnQeHXQtB_-4">
          <mxGeometry x="19" y="113" width="78" height="78" as="geometry" />
        </mxCell>
        <mxCell id="2p6uh4pjQ9wnQeHXQtB_-6" value="Public subnet" style="points=[[0,0],[0.25,0],[0.5,0],[0.75,0],[1,0],[1,0.25],[1,0.5],[1,0.75],[1,1],[0.75,1],[0.5,1],[0.25,1],[0,1],[0,0.75],[0,0.5],[0,0.25]];outlineConnect=0;gradientColor=none;html=1;whiteSpace=wrap;fontSize=12;fontStyle=0;container=1;pointerEvents=0;collapsible=0;recursiveResize=0;shape=mxgraph.aws4.group;grIcon=mxgraph.aws4.group_security_group;grStroke=0;strokeColor=#248814;fillColor=#E9F3E6;verticalAlign=top;align=left;spacingLeft=30;fontColor=#248814;dashed=0;" vertex="1" parent="2p6uh4pjQ9wnQeHXQtB_-3">
          <mxGeometry x="310" y="70" width="200" height="200" as="geometry" />
        </mxCell>
        <mxCell id="2p6uh4pjQ9wnQeHXQtB_-11" value="" style="sketch=0;points=[[0,0,0],[0.25,0,0],[0.5,0,0],[0.75,0,0],[1,0,0],[0,1,0],[0.25,1,0],[0.5,1,0],[0.75,1,0],[1,1,0],[0,0.25,0],[0,0.5,0],[0,0.75,0],[1,0.25,0],[1,0.5,0],[1,0.75,0]];outlineConnect=0;fontColor=#232F3E;gradientColor=#F78E04;gradientDirection=north;fillColor=#D05C17;strokeColor=#ffffff;dashed=0;verticalLabelPosition=bottom;verticalAlign=top;align=center;html=1;fontSize=12;fontStyle=0;aspect=fixed;shape=mxgraph.aws4.resourceIcon;resIcon=mxgraph.aws4.app_runner;direction=south;" vertex="1" parent="2p6uh4pjQ9wnQeHXQtB_-6">
          <mxGeometry x="22" y="100" width="78" height="78" as="geometry" />
        </mxCell>
        <mxCell id="2p6uh4pjQ9wnQeHXQtB_-12" value="" style="sketch=0;outlineConnect=0;fontColor=#232F3E;gradientColor=none;fillColor=#D45B07;strokeColor=none;dashed=0;verticalLabelPosition=bottom;verticalAlign=top;align=center;html=1;fontSize=12;fontStyle=0;aspect=fixed;pointerEvents=1;shape=mxgraph.aws4.auto_scaling2;" vertex="1" parent="2p6uh4pjQ9wnQeHXQtB_-6">
          <mxGeometry x="42" y="46" width="48" height="48" as="geometry" />
        </mxCell>
        <mxCell id="2p6uh4pjQ9wnQeHXQtB_-35" value="" style="endArrow=none;html=1;rounded=0;strokeWidth=2;entryX=0.5;entryY=1;entryDx=0;entryDy=0;" edge="1" parent="2p6uh4pjQ9wnQeHXQtB_-6" target="2p6uh4pjQ9wnQeHXQtB_-79">
          <mxGeometry width="50" height="50" relative="1" as="geometry">
            <mxPoint x="171" y="142" as="sourcePoint" />
            <mxPoint x="171" y="-88" as="targetPoint" />
          </mxGeometry>
        </mxCell>
        <mxCell id="2p6uh4pjQ9wnQeHXQtB_-36" value="" style="endArrow=classic;html=1;rounded=0;strokeWidth=2;" edge="1" parent="2p6uh4pjQ9wnQeHXQtB_-6">
          <mxGeometry width="50" height="50" relative="1" as="geometry">
            <mxPoint x="171" y="142" as="sourcePoint" />
            <mxPoint x="121" y="142" as="targetPoint" />
          </mxGeometry>
        </mxCell>
        <mxCell id="2p6uh4pjQ9wnQeHXQtB_-75" value="&lt;font style=&quot;font-size: 16px;&quot;&gt;auto scaling&lt;/font&gt;" style="text;html=1;strokeColor=none;fillColor=none;align=center;verticalAlign=middle;whiteSpace=wrap;rounded=0;fontSize=19;" vertex="1" parent="2p6uh4pjQ9wnQeHXQtB_-6">
          <mxGeometry x="38" y="18" width="100" height="30" as="geometry" />
        </mxCell>
        <mxCell id="2p6uh4pjQ9wnQeHXQtB_-17" value="" style="dashed=0;outlineConnect=0;html=1;align=center;labelPosition=center;verticalLabelPosition=bottom;verticalAlign=top;shape=mxgraph.webicons.json_2;gradientColor=#DFDEDE;strokeColor=#97D077;fillColor=none;" vertex="1" parent="2p6uh4pjQ9wnQeHXQtB_-6">
          <mxGeometry x="80" y="50" width="100" height="80" as="geometry" />
        </mxCell>
        <mxCell id="2p6uh4pjQ9wnQeHXQtB_-73" value="&lt;font style=&quot;font-size: 19px;&quot;&gt;API&lt;/font&gt;" style="text;html=1;strokeColor=none;fillColor=none;align=center;verticalAlign=middle;whiteSpace=wrap;rounded=0;fontStyle=1" vertex="1" parent="2p6uh4pjQ9wnQeHXQtB_-6">
          <mxGeometry x="80" y="60" width="100" height="30" as="geometry" />
        </mxCell>
        <mxCell id="2p6uh4pjQ9wnQeHXQtB_-26" style="edgeStyle=none;rounded=0;orthogonalLoop=1;jettySize=auto;html=1;exitX=1;exitY=0.5;exitDx=0;exitDy=0;exitPerimeter=0;strokeWidth=2;" edge="1" parent="2p6uh4pjQ9wnQeHXQtB_-3">
          <mxGeometry relative="1" as="geometry">
            <mxPoint x="168" y="222" as="sourcePoint" />
            <mxPoint x="332" y="222" as="targetPoint" />
          </mxGeometry>
        </mxCell>
        <mxCell id="2p6uh4pjQ9wnQeHXQtB_-28" style="edgeStyle=none;rounded=0;orthogonalLoop=1;jettySize=auto;html=1;strokeWidth=2;" edge="1" parent="2p6uh4pjQ9wnQeHXQtB_-3">
          <mxGeometry relative="1" as="geometry">
            <mxPoint x="332" y="222" as="sourcePoint" />
            <mxPoint x="168" y="222" as="targetPoint" />
          </mxGeometry>
        </mxCell>
        <mxCell id="2p6uh4pjQ9wnQeHXQtB_-37" value="" style="endArrow=none;html=1;rounded=0;strokeWidth=2;" edge="1" parent="2p6uh4pjQ9wnQeHXQtB_-3">
          <mxGeometry width="50" height="50" relative="1" as="geometry">
            <mxPoint x="350" y="170" as="sourcePoint" />
            <mxPoint x="350" y="-90" as="targetPoint" />
          </mxGeometry>
        </mxCell>
        <mxCell id="2p6uh4pjQ9wnQeHXQtB_-38" value="" style="endArrow=classic;html=1;rounded=0;strokeWidth=2;" edge="1" parent="2p6uh4pjQ9wnQeHXQtB_-3">
          <mxGeometry width="50" height="50" relative="1" as="geometry">
            <mxPoint x="350" y="-89" as="sourcePoint" />
            <mxPoint x="410" y="-89" as="targetPoint" />
          </mxGeometry>
        </mxCell>
        <mxCell id="2p6uh4pjQ9wnQeHXQtB_-45" value="" style="sketch=0;points=[[0,0,0],[0.25,0,0],[0.5,0,0],[0.75,0,0],[1,0,0],[0,1,0],[0.25,1,0],[0.5,1,0],[0.75,1,0],[1,1,0],[0,0.25,0],[0,0.5,0],[0,0.75,0],[1,0.25,0],[1,0.5,0],[1,0.75,0]];outlineConnect=0;fontColor=#232F3E;gradientColor=#4D72F3;gradientDirection=north;fillColor=#3334B9;strokeColor=#ffffff;dashed=0;verticalLabelPosition=bottom;verticalAlign=top;align=center;html=1;fontSize=12;fontStyle=0;aspect=fixed;shape=mxgraph.aws4.resourceIcon;resIcon=mxgraph.aws4.xray;" vertex="1" parent="2p6uh4pjQ9wnQeHXQtB_-3">
          <mxGeometry x="206" y="306" width="78" height="78" as="geometry" />
        </mxCell>
        <mxCell id="2p6uh4pjQ9wnQeHXQtB_-46" value="" style="sketch=0;points=[[0,0,0],[0.25,0,0],[0.5,0,0],[0.75,0,0],[1,0,0],[0,1,0],[0.25,1,0],[0.5,1,0],[0.75,1,0],[1,1,0],[0,0.25,0],[0,0.5,0],[0,0.75,0],[1,0.25,0],[1,0.5,0],[1,0.75,0]];points=[[0,0,0],[0.25,0,0],[0.5,0,0],[0.75,0,0],[1,0,0],[0,1,0],[0.25,1,0],[0.5,1,0],[0.75,1,0],[1,1,0],[0,0.25,0],[0,0.5,0],[0,0.75,0],[1,0.25,0],[1,0.5,0],[1,0.75,0]];outlineConnect=0;fontColor=#232F3E;gradientColor=#F34482;gradientDirection=north;fillColor=#BC1356;strokeColor=#ffffff;dashed=0;verticalLabelPosition=bottom;verticalAlign=top;align=center;html=1;fontSize=12;fontStyle=0;aspect=fixed;shape=mxgraph.aws4.resourceIcon;resIcon=mxgraph.aws4.cloudwatch_2;" vertex="1" parent="2p6uh4pjQ9wnQeHXQtB_-3">
          <mxGeometry x="206" y="409" width="78" height="78" as="geometry" />
        </mxCell>
        <mxCell id="2p6uh4pjQ9wnQeHXQtB_-48" value="" style="endArrow=none;html=1;rounded=0;strokeWidth=2;" edge="1" parent="2p6uh4pjQ9wnQeHXQtB_-3">
          <mxGeometry width="50" height="50" relative="1" as="geometry">
            <mxPoint x="348" y="450" as="sourcePoint" />
            <mxPoint x="348" y="271" as="targetPoint" />
          </mxGeometry>
        </mxCell>
        <mxCell id="2p6uh4pjQ9wnQeHXQtB_-49" value="" style="endArrow=classic;html=1;rounded=0;strokeWidth=2;" edge="1" parent="2p6uh4pjQ9wnQeHXQtB_-3">
          <mxGeometry width="50" height="50" relative="1" as="geometry">
            <mxPoint x="349" y="449" as="sourcePoint" />
            <mxPoint x="299" y="449" as="targetPoint" />
          </mxGeometry>
        </mxCell>
        <mxCell id="2p6uh4pjQ9wnQeHXQtB_-51" value="" style="endArrow=classic;html=1;rounded=0;strokeWidth=2;" edge="1" parent="2p6uh4pjQ9wnQeHXQtB_-3">
          <mxGeometry width="50" height="50" relative="1" as="geometry">
            <mxPoint x="349" y="341.5" as="sourcePoint" />
            <mxPoint x="299" y="341.5" as="targetPoint" />
          </mxGeometry>
        </mxCell>
        <mxCell id="2p6uh4pjQ9wnQeHXQtB_-54" value="" style="endArrow=classic;html=1;rounded=0;strokeWidth=2;" edge="1" parent="2p6uh4pjQ9wnQeHXQtB_-3">
          <mxGeometry width="50" height="50" relative="1" as="geometry">
            <mxPoint x="146" y="342" as="sourcePoint" />
            <mxPoint x="200" y="342" as="targetPoint" />
          </mxGeometry>
        </mxCell>
        <mxCell id="2p6uh4pjQ9wnQeHXQtB_-55" value="" style="endArrow=classic;html=1;rounded=0;strokeWidth=2;" edge="1" parent="2p6uh4pjQ9wnQeHXQtB_-3">
          <mxGeometry width="50" height="50" relative="1" as="geometry">
            <mxPoint x="145" y="449.5" as="sourcePoint" />
            <mxPoint x="199" y="449.5" as="targetPoint" />
          </mxGeometry>
        </mxCell>
        <mxCell id="2p6uh4pjQ9wnQeHXQtB_-72" value="" style="edgeStyle=none;rounded=0;orthogonalLoop=1;jettySize=auto;html=1;strokeWidth=2;" edge="1" parent="2p6uh4pjQ9wnQeHXQtB_-3" source="2p6uh4pjQ9wnQeHXQtB_-47">
          <mxGeometry relative="1" as="geometry">
            <mxPoint x="612.5" y="402.9991078066915" as="sourcePoint" />
            <mxPoint x="350" y="404" as="targetPoint" />
          </mxGeometry>
        </mxCell>
        <mxCell id="2p6uh4pjQ9wnQeHXQtB_-78" value="App Runner" style="text;html=1;strokeColor=none;fillColor=none;align=center;verticalAlign=middle;whiteSpace=wrap;rounded=0;fontSize=16;" vertex="1" parent="2p6uh4pjQ9wnQeHXQtB_-3">
          <mxGeometry x="349" y="267" width="100" height="30" as="geometry" />
        </mxCell>
        <mxCell id="2p6uh4pjQ9wnQeHXQtB_-82" value="X-Ray" style="text;html=1;strokeColor=none;fillColor=none;align=center;verticalAlign=middle;whiteSpace=wrap;rounded=0;fontSize=16;" vertex="1" parent="2p6uh4pjQ9wnQeHXQtB_-3">
          <mxGeometry x="200" y="379" width="60" height="30" as="geometry" />
        </mxCell>
        <mxCell id="2p6uh4pjQ9wnQeHXQtB_-83" value="CloudWatch" style="text;html=1;strokeColor=none;fillColor=none;align=center;verticalAlign=middle;whiteSpace=wrap;rounded=0;fontSize=16;" vertex="1" parent="2p6uh4pjQ9wnQeHXQtB_-3">
          <mxGeometry x="215" y="486" width="60" height="30" as="geometry" />
        </mxCell>
        <mxCell id="2p6uh4pjQ9wnQeHXQtB_-13" value="Users" style="sketch=0;outlineConnect=0;gradientColor=none;fontColor=#545B64;strokeColor=none;fillColor=#879196;dashed=0;verticalLabelPosition=bottom;verticalAlign=top;align=center;html=1;fontSize=12;fontStyle=0;aspect=fixed;shape=mxgraph.aws4.illustration_users;pointerEvents=1" vertex="1" parent="1">
          <mxGeometry x="430" y="-150" width="100" height="100" as="geometry" />
        </mxCell>
        <mxCell id="2p6uh4pjQ9wnQeHXQtB_-39" value="" style="sketch=0;points=[[0,0,0],[0.25,0,0],[0.5,0,0],[0.75,0,0],[1,0,0],[0,1,0],[0.25,1,0],[0.5,1,0],[0.75,1,0],[1,1,0],[0,0.25,0],[0,0.5,0],[0,0.75,0],[1,0.25,0],[1,0.5,0],[1,0.75,0]];outlineConnect=0;fontColor=#232F3E;gradientColor=#F78E04;gradientDirection=north;fillColor=#D05C17;strokeColor=#ffffff;dashed=0;verticalLabelPosition=bottom;verticalAlign=top;align=center;html=1;fontSize=12;fontStyle=0;aspect=fixed;shape=mxgraph.aws4.resourceIcon;resIcon=mxgraph.aws4.app_runner;direction=south;" vertex="1" parent="1">
          <mxGeometry x="352" y="190" width="78" height="78" as="geometry" />
        </mxCell>
        <mxCell id="2p6uh4pjQ9wnQeHXQtB_-40" value="" style="sketch=0;points=[[0,0,0],[0.25,0,0],[0.5,0,0],[0.75,0,0],[1,0,0],[0,1,0],[0.25,1,0],[0.5,1,0],[0.75,1,0],[1,1,0],[0,0.25,0],[0,0.5,0],[0,0.75,0],[1,0.25,0],[1,0.5,0],[1,0.75,0]];outlineConnect=0;fontColor=#232F3E;gradientColor=#F78E04;gradientDirection=north;fillColor=#D05C17;strokeColor=#ffffff;dashed=0;verticalLabelPosition=bottom;verticalAlign=top;align=center;html=1;fontSize=12;fontStyle=0;aspect=fixed;shape=mxgraph.aws4.resourceIcon;resIcon=mxgraph.aws4.app_runner;direction=south;" vertex="1" parent="1">
          <mxGeometry x="362" y="200" width="78" height="78" as="geometry" />
        </mxCell>
        <mxCell id="2p6uh4pjQ9wnQeHXQtB_-57" value="" style="edgeStyle=none;rounded=0;orthogonalLoop=1;jettySize=auto;html=1;strokeWidth=2;" edge="1" parent="1" source="2p6uh4pjQ9wnQeHXQtB_-43">
          <mxGeometry relative="1" as="geometry">
            <mxPoint x="632.5" y="241.70910780669146" as="sourcePoint" />
            <mxPoint x="440" y="242.782527881041" as="targetPoint" />
          </mxGeometry>
        </mxCell>
        <mxCell id="2p6uh4pjQ9wnQeHXQtB_-43" value="" style="dashed=0;outlineConnect=0;html=1;align=center;labelPosition=center;verticalLabelPosition=bottom;verticalAlign=top;shape=mxgraph.weblogos.github;strokeColor=#97D077;fillColor=none;" vertex="1" parent="1">
          <mxGeometry x="642.5" y="203" width="75" height="75" as="geometry" />
        </mxCell>
        <mxCell id="2p6uh4pjQ9wnQeHXQtB_-56" value="" style="edgeStyle=none;rounded=0;orthogonalLoop=1;jettySize=auto;html=1;strokeWidth=2;" edge="1" parent="1" source="2p6uh4pjQ9wnQeHXQtB_-47" target="2p6uh4pjQ9wnQeHXQtB_-43">
          <mxGeometry relative="1" as="geometry" />
        </mxCell>
        <mxCell id="2p6uh4pjQ9wnQeHXQtB_-47" value="DevOps" style="sketch=0;outlineConnect=0;gradientColor=none;fontColor=#545B64;strokeColor=none;fillColor=#879196;dashed=0;verticalLabelPosition=bottom;verticalAlign=top;align=center;html=1;fontSize=12;fontStyle=0;aspect=fixed;shape=mxgraph.aws4.illustration_users;pointerEvents=1" vertex="1" parent="1">
          <mxGeometry x="630" y="363" width="100" height="100" as="geometry" />
        </mxCell>
        <mxCell id="2p6uh4pjQ9wnQeHXQtB_-70" value="" style="edgeStyle=none;rounded=0;orthogonalLoop=1;jettySize=auto;html=1;strokeWidth=2;" edge="1" parent="1" source="2p6uh4pjQ9wnQeHXQtB_-69" target="2p6uh4pjQ9wnQeHXQtB_-43">
          <mxGeometry relative="1" as="geometry" />
        </mxCell>
        <mxCell id="2p6uh4pjQ9wnQeHXQtB_-69" value="Developers&lt;br&gt;" style="sketch=0;outlineConnect=0;gradientColor=none;fontColor=#545B64;strokeColor=none;fillColor=#879196;dashed=0;verticalLabelPosition=bottom;verticalAlign=top;align=center;html=1;fontSize=12;fontStyle=0;aspect=fixed;shape=mxgraph.aws4.illustration_users;pointerEvents=1" vertex="1" parent="1">
          <mxGeometry x="630" y="-150" width="100" height="100" as="geometry" />
        </mxCell>
        <mxCell id="2p6uh4pjQ9wnQeHXQtB_-79" value="POST" style="text;html=1;strokeColor=none;fillColor=none;align=center;verticalAlign=middle;whiteSpace=wrap;rounded=0;fontSize=16;" vertex="1" parent="1">
          <mxGeometry x="430" y="-20" width="90" height="20" as="geometry" />
        </mxCell>
        <mxCell id="2p6uh4pjQ9wnQeHXQtB_-80" value="GET" style="text;html=1;strokeColor=none;fillColor=none;align=center;verticalAlign=middle;whiteSpace=wrap;rounded=0;fontSize=16;" vertex="1" parent="1">
          <mxGeometry x="379" y="-87" width="94" height="20" as="geometry" />
        </mxCell>
        <mxCell id="2p6uh4pjQ9wnQeHXQtB_-81" value="CI/CD" style="text;html=1;strokeColor=none;fillColor=none;align=center;verticalAlign=middle;whiteSpace=wrap;rounded=0;fontSize=16;" vertex="1" parent="1">
          <mxGeometry x="576" y="202" width="80" height="30" as="geometry" />
        </mxCell>
      </root>
    </mxGraphModel>
  </diagram>
</mxfile>
